============ AVENGED SEVENFOLD - SO FAR AWAY HD 720P======================

Format                           : MPEG-4
Format profile                   : Base Media
Codec ID                         : isom
File size                        : 85.7 MiB
Duration                         : 5mn 28s
Overall bit rate                 : 2 186 Kbps

Video
ID                               : 1
Format                           : MPEG-4 Visual
Format profile                   : Simple@L1
Format settings, BVOP            : No
Format settings, QPel            : No
Format settings, GMC             : No warppoints
Format settings, Matrix          : Default (H.263)
Codec ID                         : 20
Duration                         : 5mn 28s
Bit rate mode                    : Variable
Bit rate                         : 2 118 Kbps
Width                            : 720 pixels
Height                           : 576 pixels
Display aspect ratio             : 16:9
Frame rate mode                  : Constant
Frame rate                       : 24.000 fps
Standard                         : PAL
Color space                      : YUV
Chroma subsampling               : 4:2:0
Bit depth                        : 8 bits
Scan type                        : Progressive
Bits/(Pixel*Frame)               : 0.213
Stream size                      : 83.0 MiB (97%)
Writing library                  : Lavc52.37.0

Audio
ID                               : 2
Format                           : AAC
Format/Info                      : Advanced Audio Codec
Format version                   : Version 4
Format profile                   : LC
Format settings, SBR             : No
Codec ID                         : 40
Duration                         : 5mn 28s
Bit rate mode                    : Variable
Bit rate                         : 63.6 Kbps
Channel(s)                       : 2 channels
Channel positions                : Front: L R
Sampling rate                    : 44.1 KHz
Stream size                      : 2.49 MiB (3%)

===================== SCREEN SHOTS =================================
            
                     http://bayimg.com/cAilFAADO
                     http://bayimg.com/CAILlAadO
                     http://bayimg.com/DaIlaaaDO

=====================================================================================================================================================================
 ##  #  # # # # ### ### ###     ##  #   ###  #   ## ### ===========================
#   # # ### ### #   # #  #      # # #   #   # # #   # =============================  
#   # # ### ### ##  # #  #      ##  #   ##  ###  #  ##=============================  
#   # # # # # # #   # #  #      #   #   #   # #   # # =============================  
 ##  #  # # # # ### # #  #      #   ### ### # # ##  ###===========================
====================================================================================================================================================================== 


                                                                                                                                                
                                                                                                                                                    